<svg xmlns="http://www.w3.org/2000/svg" data-name="Vrstva 1" viewBox="0 0 600 300"><g data-name="Layer 1-2"><path d="M157.07 177.57v-54.15h22.68c4.02 0 7.45.62 10.23 1.86 2.77 1.24 4.89 2.96 6.32 5.15 1.42 2.19 2.12 4.75 2.12 7.67 0 2.26-.4 4.27-1.24 6.1s-2.08 3.32-3.76 4.57c-1.68 1.24-3.69 2.08-6.1 2.56v.47c1.82.44 3.36 1.17 4.6 2.19s2.26 2.26 3.07 3.69c.84 1.46 1.57 3.21 2.23 5.33l4.64 14.53h-11.54l-4.09-12.93c-.59-2.08-1.28-3.69-2.08-4.86s-1.82-2.01-3.14-2.52c-1.31-.51-3-.8-5.11-.8h-7.52v21.07h-11.29v.07Zm20.74-29.8c1.9 0 3.54-.29 4.97-.84 1.39-.55 2.48-1.42 3.25-2.59s1.17-2.63 1.17-4.31-.4-3.14-1.17-4.27-1.86-1.97-3.25-2.48-3.07-.8-4.97-.8h-9.46v15.34h9.46v-.04Zm46.38 30.71c-4.09 0-7.78-.91-11.06-2.7-3.32-1.79-5.92-4.35-7.82-7.63s-2.85-7.05-2.85-11.29.95-7.96 2.81-11.25c1.86-3.28 4.49-5.88 7.78-7.7 3.32-1.86 7.05-2.77 11.21-2.77s7.89.91 11.18 2.77c3.28 1.82 5.88 4.42 7.74 7.7s2.81 7.05 2.81 11.29-.95 7.96-2.85 11.25c-1.9 3.28-4.49 5.84-7.78 7.67-3.32 1.75-7.05 2.67-11.18 2.67Zm0-9.02c2.08 0 3.95-.51 5.59-1.54 1.64-1.02 2.96-2.48 3.95-4.38.95-1.9 1.46-4.13 1.46-6.68s-.47-4.75-1.42-6.68c-.95-1.9-2.26-3.4-3.91-4.42s-3.54-1.57-5.62-1.57-3.95.51-5.59 1.57c-1.64 1.02-2.96 2.52-3.91 4.42s-1.42 4.16-1.42 6.72.47 4.75 1.46 6.64c.95 1.9 2.26 3.36 3.91 4.38 1.57 1.02 3.43 1.54 5.51 1.54Zm46.59 9.02c-4.09 0-7.78-.91-11.06-2.7-3.32-1.79-5.92-4.35-7.82-7.63s-2.85-7.05-2.85-11.29.95-7.96 2.81-11.25 4.49-5.88 7.78-7.7c3.32-1.86 7.05-2.77 11.21-2.77s7.89.91 11.18 2.77c3.28 1.82 5.88 4.42 7.74 7.7s2.81 7.05 2.81 11.29-.95 7.96-2.85 11.25-4.49 5.84-7.78 7.67c-3.32 1.75-7.05 2.67-11.18 2.67Zm0-9.02c2.08 0 3.95-.51 5.59-1.54 1.64-1.02 2.96-2.48 3.95-4.38.95-1.9 1.46-4.13 1.46-6.68s-.47-4.75-1.42-6.68c-.95-1.9-2.26-3.4-3.91-4.42-1.64-1.02-3.54-1.57-5.62-1.57s-3.95.51-5.59 1.57c-1.64 1.02-2.96 2.52-3.91 4.42s-1.42 4.16-1.42 6.72.47 4.75 1.46 6.64c.95 1.9 2.26 3.36 3.91 4.38 1.57 1.02 3.43 1.54 5.51 1.54Zm44.08 8.77c-3.47 0-6.24-.55-8.25-1.64-2.05-1.1-3.47-2.59-4.27-4.42-.84-1.86-1.24-4.05-1.24-6.57v-21.14h-7.34v-8.51h7.34v-10.41h10.7v10.41h9.64v8.47h-9.64v20.6c0 1.42.44 2.52 1.31 3.28s2.3 1.13 4.27 1.13c1.24 0 2.56-.15 3.95-.4v8.18c-2.01.69-4.16 1.02-6.46 1.02Zm26.88.29c-4.6 0-8.44-1.02-11.5-3.07-3.07-2.05-5.15-4.97-6.24-8.8l8.77-2.96c.73 2.15 1.86 3.83 3.36 5s3.36 1.75 5.51 1.75 3.83-.4 4.97-1.17c1.13-.77 1.68-1.82 1.68-3.07 0-1.02-.26-1.86-.77-2.45-.51-.62-1.39-1.13-2.59-1.61-1.21-.44-2.96-.91-5.18-1.42-3.51-.77-6.28-1.64-8.29-2.63s-3.51-2.23-4.46-3.8-1.46-3.51-1.46-5.92c0-2.67.69-4.97 2.05-6.98 1.35-2.01 3.28-3.54 5.84-4.67 2.56-1.1 5.48-1.64 8.8-1.64 2.92 0 5.51.4 7.78 1.24 2.26.84 4.09 2.08 5.55 3.72s2.48 3.65 3.03 5.99l-8.69 2.92c-.62-1.82-1.61-3.25-2.88-4.31-1.31-1.02-2.88-1.57-4.71-1.57-1.28 0-2.37.15-3.32.47-.95.33-1.68.8-2.19 1.42s-.77 1.35-.77 2.19c0 .95.22 1.72.69 2.26.44.55 1.28 1.02 2.45 1.42s2.88.84 5.11 1.31c3.69.8 6.61 1.68 8.69 2.67 2.08.95 3.65 2.23 4.64 3.76.99 1.57 1.5 3.54 1.5 6.03 0 2.81-.66 5.22-2.01 7.3-1.35 2.05-3.32 3.65-5.92 4.82-2.59 1.17-5.73 1.75-9.42 1.75Zm39.91-.29c-3.47 0-6.24-.55-8.25-1.64-2.05-1.1-3.47-2.59-4.27-4.42-.84-1.86-1.24-4.05-1.24-6.57v-21.14h-7.34v-8.51h7.34v-10.41h10.7v10.41h9.64v8.47h-9.64v20.6c0 1.42.44 2.52 1.31 3.28s2.3 1.13 4.27 1.13c1.24 0 2.56-.15 3.95-.4v8.18c-2.01.69-4.16 1.02-6.46 1.02Zm30.89.25c-4.09 0-7.78-.91-11.06-2.7-3.32-1.79-5.92-4.35-7.82-7.63s-2.85-7.05-2.85-11.29.95-7.96 2.81-11.25c1.86-3.28 4.49-5.88 7.78-7.7 3.32-1.86 7.05-2.77 11.21-2.77s7.89.91 11.18 2.77c3.28 1.82 5.88 4.42 7.74 7.7s2.81 7.05 2.81 11.29-.95 7.96-2.85 11.25c-1.9 3.28-4.49 5.84-7.78 7.67-3.32 1.75-7.01 2.67-11.18 2.67Zm0-9.02c2.08 0 3.95-.51 5.59-1.54 1.64-1.02 2.96-2.48 3.95-4.38.95-1.9 1.46-4.13 1.46-6.68s-.47-4.75-1.42-6.68c-.95-1.9-2.26-3.4-3.91-4.42-1.64-1.02-3.54-1.57-5.62-1.57s-3.95.51-5.59 1.57c-1.64 1.02-2.96 2.52-3.91 4.42s-1.42 4.16-1.42 6.72.47 4.75 1.46 6.64c.95 1.9 2.26 3.36 3.91 4.38 1.61 1.02 3.43 1.54 5.51 1.54Zm47.55 9.06c-3.87 0-7.45-.8-10.74-2.45-3.32-1.64-5.95-4.09-7.96-7.34s-3-7.16-3-11.69.95-8.36 2.88-11.69c1.94-3.32 4.53-5.84 7.82-7.63 3.28-1.79 6.94-2.67 10.92-2.67 3.28 0 6.24.62 8.87 1.86s4.86 2.92 6.61 5.08c1.75 2.15 3.03 4.6 3.76 7.34l-9.24 2.67c-.44-1.54-1.13-2.88-2.01-4.05a9.9 9.9 0 0 0-3.25-2.81c-1.28-.69-2.77-1.02-4.42-1.02-2.19 0-4.16.55-5.88 1.61s-3.07 2.56-4.02 4.49c-.95 1.94-1.46 4.16-1.46 6.64s.51 4.82 1.54 6.72c1.02 1.9 2.41 3.36 4.13 4.35s3.58 1.5 5.62 1.5c1.64 0 3.1-.33 4.42-.99s2.41-1.57 3.32-2.67c.91-1.13 1.61-2.37 2.08-3.72l9.2 2.74c-.66 2.45-1.82 4.71-3.51 6.83q-2.52 3.12-6.57 5.04c-2.67 1.21-5.7 1.86-9.13 1.86Zm24.43-.95v-54.15h10.7v29.14l16.8-16.62h12.38l-17.89 17.31 17.78 24.32H511.8l-12.89-17.82-3.72 3.51v14.31h-10.66Z" style="isolation:isolate"/><circle cx="108.75" cy="123.38" r="10.08"/><path d="M136.76 154.53c-4.82-2.77-10.99-1.13-13.77 3.69-.95 1.64-1.39 3.47-1.35 5.26.11 4.46-3.91 6.76-7.7 4.46-.15-.07-.29-.18-.47-.26-3.83-2.15-3.83-6.72 0-8.84 3.14-1.72 5.29-5.04 5.29-8.87v-.22c-.11-4.46 3.91-6.76 7.7-4.46a10.03 10.03 0 0 0 10.26.11c4.82-2.77 6.46-8.95 3.69-13.77s-8.95-6.46-13.77-3.69c-3.28 1.9-5.11 5.41-5.04 8.95.11 4.46-3.91 6.76-7.67 4.46-1.54-.95-3.32-1.5-5.26-1.5s-3.72.55-5.26 1.46c-3.8 2.26-7.78-.04-7.67-4.46.07-3.58-1.75-7.05-5.04-8.95-4.82-2.77-10.99-1.1-13.77 3.72s-1.1 10.99 3.72 13.77c3.28 1.9 7.23 1.72 10.26-.11 3.8-2.3 7.78 0 7.67 4.46v.22c0 3.83 2.12 7.16 5.29 8.87 3.83 2.15 3.83 6.72 0 8.84-.15.07-.29.18-.44.26-3.8 2.26-7.78-.04-7.67-4.46.04-1.79-.4-3.62-1.35-5.29-2.77-4.82-8.95-6.46-13.77-3.69-4.82 2.85-6.46 9.02-3.69 13.84s8.95 6.46 13.77 3.69c.07-.04.11-.07.18-.11 3.8-2.3 7.78 0 7.67 4.46v.26c0 5.55 4.53 10.08 10.08 10.08s10.08-4.53 10.08-10.08v-.22c-.11-4.46 3.91-6.76 7.7-4.46.07.04.15.07.22.15 4.82 2.77 10.99 1.13 13.77-3.69 2.77-4.93 1.13-11.1-3.69-13.88Z"/></g></svg>